<?xml version="1.0" encoding="UTF-8"?>
<svg xmlns="http://www.w3.org/2000/svg" width="1200" height="800" viewBox="0 0 1200 800">
  <defs>
    <linearGradient id="g" x1="0" y1="0" x2="1" y2="1">
      <stop offset="0" stop-color="#e6f0ff" stop-opacity="0.9"/>
      <stop offset="1" stop-color="#f7fbff" stop-opacity="0.9"/>
    </linearGradient>
    <filter id="soft" x="-20%" y="-20%" width="140%" height="140%">
      <feGaussianBlur in="SourceGraphic" stdDeviation="2"/>
    </filter>
  </defs>
  <rect width="100%" height="100%" fill="url(#g)"/>
  <!-- Tooth outline (stylized) -->
  <g transform="translate(600,360) scale(2.2)" fill="none" stroke="#9bb7ff" stroke-width="3" opacity="0.25" filter="url(#soft)">
    <path d="M0 -90
             C 45 -90, 80 -60, 80 -15
             C 80 30, 60 60, 40 90
             C 30 105, 10 105, 0 85
             C -10 105, -30 105, -40 90
             C -60 60, -80 30, -80 -15
             C -80 -60, -45 -90, 0 -90 Z"/>
    <path d="M-20 -30 C -10 -40, 10 -40, 20 -30" stroke-linecap="round"/>
  </g>
</svg>
